<mxfile host="app.diagrams.net" modified="2023-05-21T19:17:43.594Z" agent="Mozilla/5.0 (Windows NT 10.0; Win64; x64) AppleWebKit/537.36 (KHTML, like Gecko) Chrome/110.0.0.0 YaBrowser/23.3.4.603 Yowser/2.5 Safari/537.36" etag="UNyuH7VAAi82vyhVM_bq" version="21.3.2" type="device">
  <diagram name="Page-1" id="b5b7bab2-c9e2-2cf4-8b2a-24fd1a2a6d21">
    <mxGraphModel dx="1195" dy="639" grid="1" gridSize="10" guides="1" tooltips="1" connect="1" arrows="1" fold="1" page="1" pageScale="1" pageWidth="827" pageHeight="1169" background="none" math="0" shadow="0">
      <root>
        <mxCell id="0" />
        <mxCell id="1" parent="0" />
        <mxCell id="qm7TvBHYhQldJ4j9C33_-1" value="dash_interface" style="shape=module;align=left;spacingLeft=20;align=center;verticalAlign=top;whiteSpace=wrap;html=1;" vertex="1" parent="1">
          <mxGeometry x="270" y="50" width="190" height="90" as="geometry" />
        </mxCell>
        <mxCell id="qm7TvBHYhQldJ4j9C33_-2" value="pattern_miner" style="shape=module;align=left;spacingLeft=20;align=center;verticalAlign=top;whiteSpace=wrap;html=1;" vertex="1" parent="1">
          <mxGeometry x="490" y="240" width="190" height="90" as="geometry" />
        </mxCell>
        <mxCell id="qm7TvBHYhQldJ4j9C33_-3" value="data_converter" style="shape=module;align=left;spacingLeft=20;align=center;verticalAlign=top;whiteSpace=wrap;html=1;" vertex="1" parent="1">
          <mxGeometry x="270" y="240" width="190" height="90" as="geometry" />
        </mxCell>
        <mxCell id="qm7TvBHYhQldJ4j9C33_-4" value="data_requester" style="shape=module;align=left;spacingLeft=20;align=center;verticalAlign=top;whiteSpace=wrap;html=1;" vertex="1" parent="1">
          <mxGeometry x="50" y="240" width="190" height="90" as="geometry" />
        </mxCell>
        <mxCell id="qm7TvBHYhQldJ4j9C33_-5" value="" style="endArrow=classic;html=1;rounded=0;exitX=0.5;exitY=1;exitDx=0;exitDy=0;entryX=0.5;entryY=0;entryDx=0;entryDy=0;" edge="1" parent="1" source="qm7TvBHYhQldJ4j9C33_-1" target="qm7TvBHYhQldJ4j9C33_-4">
          <mxGeometry width="50" height="50" relative="1" as="geometry">
            <mxPoint x="150" y="360" as="sourcePoint" />
            <mxPoint x="140" y="430" as="targetPoint" />
          </mxGeometry>
        </mxCell>
        <mxCell id="qm7TvBHYhQldJ4j9C33_-6" value="" style="endArrow=classic;html=1;rounded=0;exitX=0.5;exitY=1;exitDx=0;exitDy=0;entryX=0.5;entryY=0;entryDx=0;entryDy=0;" edge="1" parent="1" source="qm7TvBHYhQldJ4j9C33_-1" target="qm7TvBHYhQldJ4j9C33_-3">
          <mxGeometry width="50" height="50" relative="1" as="geometry">
            <mxPoint x="375" y="150" as="sourcePoint" />
            <mxPoint x="155" y="250" as="targetPoint" />
          </mxGeometry>
        </mxCell>
        <mxCell id="qm7TvBHYhQldJ4j9C33_-12" value="" style="rounded=0;whiteSpace=wrap;html=1;" vertex="1" parent="1">
          <mxGeometry y="402.5" width="730" height="445" as="geometry" />
        </mxCell>
        <mxCell id="qm7TvBHYhQldJ4j9C33_-7" value="" style="endArrow=classic;html=1;rounded=0;exitX=0.5;exitY=1;exitDx=0;exitDy=0;entryX=0.5;entryY=0;entryDx=0;entryDy=0;" edge="1" parent="1" source="qm7TvBHYhQldJ4j9C33_-1" target="qm7TvBHYhQldJ4j9C33_-2">
          <mxGeometry width="50" height="50" relative="1" as="geometry">
            <mxPoint x="375" y="150" as="sourcePoint" />
            <mxPoint x="155" y="250" as="targetPoint" />
          </mxGeometry>
        </mxCell>
        <mxCell id="qm7TvBHYhQldJ4j9C33_-8" value="Веб-интерфейс" style="html=1;dropTarget=0;whiteSpace=wrap;" vertex="1" parent="1">
          <mxGeometry x="155" y="590" width="180" height="90" as="geometry" />
        </mxCell>
        <mxCell id="qm7TvBHYhQldJ4j9C33_-9" value="" style="shape=module;jettyWidth=8;jettyHeight=4;" vertex="1" parent="qm7TvBHYhQldJ4j9C33_-8">
          <mxGeometry x="1" width="20" height="20" relative="1" as="geometry">
            <mxPoint x="-27" y="7" as="offset" />
          </mxGeometry>
        </mxCell>
        <mxCell id="qm7TvBHYhQldJ4j9C33_-10" value="Модуль запроса и сохранения данных" style="html=1;dropTarget=0;whiteSpace=wrap;" vertex="1" parent="1">
          <mxGeometry x="395" y="460" width="180" height="90" as="geometry" />
        </mxCell>
        <mxCell id="qm7TvBHYhQldJ4j9C33_-11" value="" style="shape=module;jettyWidth=8;jettyHeight=4;" vertex="1" parent="qm7TvBHYhQldJ4j9C33_-10">
          <mxGeometry x="1" width="20" height="20" relative="1" as="geometry">
            <mxPoint x="-27" y="7" as="offset" />
          </mxGeometry>
        </mxCell>
        <mxCell id="qm7TvBHYhQldJ4j9C33_-13" value="Модуль преобразования данных" style="html=1;dropTarget=0;whiteSpace=wrap;" vertex="1" parent="1">
          <mxGeometry x="395" y="590" width="180" height="90" as="geometry" />
        </mxCell>
        <mxCell id="qm7TvBHYhQldJ4j9C33_-14" value="" style="shape=module;jettyWidth=8;jettyHeight=4;" vertex="1" parent="qm7TvBHYhQldJ4j9C33_-13">
          <mxGeometry x="1" width="20" height="20" relative="1" as="geometry">
            <mxPoint x="-27" y="7" as="offset" />
          </mxGeometry>
        </mxCell>
        <mxCell id="qm7TvBHYhQldJ4j9C33_-15" value="Модуль поиска ассоциативных правил" style="html=1;dropTarget=0;whiteSpace=wrap;" vertex="1" parent="1">
          <mxGeometry x="395" y="720" width="180" height="90" as="geometry" />
        </mxCell>
        <mxCell id="qm7TvBHYhQldJ4j9C33_-16" value="" style="shape=module;jettyWidth=8;jettyHeight=4;" vertex="1" parent="qm7TvBHYhQldJ4j9C33_-15">
          <mxGeometry x="1" width="20" height="20" relative="1" as="geometry">
            <mxPoint x="-27" y="7" as="offset" />
          </mxGeometry>
        </mxCell>
        <mxCell id="qm7TvBHYhQldJ4j9C33_-17" value="" style="endArrow=none;html=1;rounded=0;entryX=0;entryY=0.5;entryDx=0;entryDy=0;exitX=1;exitY=0.5;exitDx=0;exitDy=0;" edge="1" parent="1" source="qm7TvBHYhQldJ4j9C33_-8" target="qm7TvBHYhQldJ4j9C33_-13">
          <mxGeometry width="50" height="50" relative="1" as="geometry">
            <mxPoint x="335" y="640" as="sourcePoint" />
            <mxPoint x="385" y="590" as="targetPoint" />
          </mxGeometry>
        </mxCell>
        <mxCell id="qm7TvBHYhQldJ4j9C33_-18" value="" style="endArrow=none;html=1;rounded=0;exitX=0.5;exitY=0;exitDx=0;exitDy=0;entryX=0;entryY=0.5;entryDx=0;entryDy=0;" edge="1" parent="1" source="qm7TvBHYhQldJ4j9C33_-8" target="qm7TvBHYhQldJ4j9C33_-10">
          <mxGeometry width="50" height="50" relative="1" as="geometry">
            <mxPoint x="345" y="645" as="sourcePoint" />
            <mxPoint x="405" y="645" as="targetPoint" />
            <Array as="points">
              <mxPoint x="245" y="505" />
            </Array>
          </mxGeometry>
        </mxCell>
        <mxCell id="qm7TvBHYhQldJ4j9C33_-20" value="" style="endArrow=none;html=1;rounded=0;entryX=0;entryY=0.5;entryDx=0;entryDy=0;exitX=0.5;exitY=1;exitDx=0;exitDy=0;" edge="1" parent="1" source="qm7TvBHYhQldJ4j9C33_-8" target="qm7TvBHYhQldJ4j9C33_-15">
          <mxGeometry width="50" height="50" relative="1" as="geometry">
            <mxPoint x="295" y="760" as="sourcePoint" />
            <mxPoint x="345" y="710" as="targetPoint" />
            <Array as="points">
              <mxPoint x="245" y="765" />
            </Array>
          </mxGeometry>
        </mxCell>
      </root>
    </mxGraphModel>
  </diagram>
</mxfile>
